<svg xmlns="http://www.w3.org/2000/svg" width="48" height="48" viewBox="0 0 48 48">
  <g fill="none" fill-rule="evenodd">
    <path fill="#DA5151" d="M3,0 L45,0 C46.6568542,-3.04359188e-16 48,1.34314575 48,3 L48,45 C48,46.6568542 46.6568542,48 45,48 L3,48 C1.34314575,48 2.02906125e-16,46.6568542 0,45 L0,3 L0,3 C-2.02906125e-16,1.34314575 1.34314575,3.04359188e-16 3,0 L3,0 Z M33.5,16 L27.5,16 C27.224,16 27,16.2235 27,16.5 C27,16.7765 27.224,17 27.5,17 L33.5,17 C33.776,17 34,16.7765 34,16.5 C34,16.2235 33.776,16 33.5,16 Z M20.5,16 L18,16 L18,13.5 C18,13.2235 17.776,13 17.5,13 C17.224,13 17,13.2235 17,13.5 L17,16 L14.5,16 C14.224,16 14,16.2235 14,16.5 C14,16.7765 14.224,17 14.5,17 L17,17 L17,19.5 C17,19.7765 17.224,20 17.5,20 C17.776,20 18,19.7765 18,19.5 L18,17 L20.5,17 C20.776,17 21,16.7765 21,16.5 C21,16.2235 20.776,16 20.5,16 Z M27.5,32 L33.5,32 C33.776,32 34,31.7765 34,31.5 C34,31.2235 33.776,31 33.5,31 L27.5,31 C27.224,31 27,31.2235 27,31.5 C27,31.7765 27.224,32 27.5,32 Z M27.5,29 L33.5,29 C33.776,29 34,28.7765 34,28.5 C34,28.2235 33.776,28 33.5,28 L27.5,28 C27.224,28 27,28.2235 27,28.5 C27,28.7765 27.224,29 27.5,29 Z M19.8533811,27.1466219 C19.6578893,26.951126 19.3419024,26.951126 19.1464106,27.1466219 L17,29.2930772 L14.8535894,27.1466219 C14.6580976,26.951126 14.3421107,26.951126 14.1466189,27.1466219 C13.951127,27.3421179 13.951127,27.6581113 14.1466189,27.8536072 L16.2930295,30.0000625 L14.1466189,32.1465178 C13.951127,32.3420137 13.951127,32.6580071 14.1466189,32.8535031 C14.2441148,32.951001 14.3721095,33 14.5001042,33 C14.6280988,33 14.7560935,32.951001 14.8535894,32.8535031 L17,30.7070478 L19.1464106,32.8535031 C19.2439065,32.951001 19.3719012,33 19.4998958,33 C19.6278905,33 19.7558852,32.951001 19.8533811,32.8535031 C20.048873,32.6580071 20.048873,32.3420137 19.8533811,32.1465178 L17.7069705,30.0000625 L19.8533811,27.8536072 C20.048873,27.6581113 20.048873,27.3421179 19.8533811,27.1466219 Z M24.4827586,9 L23.5172414,9 L10,9 L10,22.5172414 L10,23.4827586 L10,37 L23.5172414,37 L24.4827586,37 L38,37 L38,23.4827586 L38,22.5172414 L38,9 L24.4827586,9 Z M10.9655172,9.96551724 L23.5172414,9.96551724 L23.5172414,22.5172414 L10.9655172,22.5172414 L10.9655172,9.96551724 Z M10.9655172,36.0344828 L10.9655172,23.4827586 L23.5172414,23.4827586 L23.5172414,36.0344828 L10.9655172,36.0344828 Z M37.0344828,36.0344828 L24.4827586,36.0344828 L24.4827586,23.4827586 L37.0344828,23.4827586 L37.0344828,36.0344828 Z M24.4827586,22.5172414 L24.4827586,9.96551724 L37.0344828,9.96551724 L37.0344828,22.5172414 L24.4827586,22.5172414 Z"/>
  </g>
</svg>
